<svg id="visual" viewBox="0 0 900 900" width="900" height="900" xmlns="http://www.w3.org/2000/svg" xmlns:xlink="http://www.w3.org/1999/xlink" version="1.1"><g transform="translate(451.9828847036174 459.99801003793425)"><path d="M85.2 -139.8C114.3 -130.7 144.6 -115.8 164.8 -91.6C185 -67.3 195 -33.7 183 -6.9C171 19.8 137 39.7 112.2 55.9C87.5 72.1 71.9 84.8 54.7 104.5C37.5 124.3 18.8 151.1 -0.9 152.7C-20.5 154.2 -41 130.3 -57.2 110C-73.3 89.7 -85.2 72.8 -112.4 55.1C-139.7 37.3 -182.3 18.7 -190.6 -4.7C-198.8 -28.2 -172.6 -56.3 -153.5 -88.2C-134.4 -120.1 -122.5 -155.8 -98.1 -167.7C-73.7 -179.6 -36.8 -167.8 -4.4 -160.1C28 -152.5 56 -149 85.2 -139.8" fill="#FCAF3C"></path></g></svg>