<svg id="visual" viewBox="0 0 900 900" width="900" height="900" xmlns="http://www.w3.org/2000/svg" xmlns:xlink="http://www.w3.org/1999/xlink" version="1.1"><g transform="translate(437.5632208788382 437.78004138722997)"><path d="M73.7 -100.8C103.4 -79.9 140.6 -68.9 161.8 -43.2C182.9 -17.6 188 22.6 178.5 60C169.1 97.4 145.1 132 112.9 152.1C80.7 172.1 40.4 177.6 -1.9 180.1C-44.1 182.7 -88.2 182.4 -112.4 159.7C-136.7 137.1 -141.1 92.2 -147.9 52.5C-154.7 12.8 -163.9 -21.7 -153.6 -48.8C-143.2 -75.8 -113.3 -95.3 -84.5 -116.5C-55.6 -137.6 -27.8 -160.3 -2.9 -156.3C22 -152.3 44.1 -121.7 73.7 -100.8" fill="#FCAF3C"></path></g></svg>