<svg id="visual" viewBox="0 0 900 900" width="900" height="900" xmlns="http://www.w3.org/2000/svg" xmlns:xlink="http://www.w3.org/1999/xlink" version="1.1"><g transform="translate(462.40874457958387 486.83064363770734)"><path d="M111.9 -158.8C143.2 -131.4 165.3 -96.1 163.9 -62.2C162.6 -28.3 137.9 4.2 123 36.9C108.2 69.6 103.2 102.3 84.3 115C65.4 127.6 32.7 120 -0.2 120.3C-33.1 120.6 -66.2 128.7 -94.3 119C-122.3 109.4 -145.3 82 -164.3 47.7C-183.2 13.4 -198.1 -27.9 -181.8 -53.2C-165.5 -78.5 -118 -87.8 -82.5 -113.8C-47 -139.7 -23.5 -182.4 8.4 -194C40.4 -205.6 80.7 -186.1 111.9 -158.8" fill="#FCAF3C"></path></g></svg>