<svg id="visual" viewBox="0 0 900 900" width="900" height="900" xmlns="http://www.w3.org/2000/svg" xmlns:xlink="http://www.w3.org/1999/xlink" version="1.1"><g transform="translate(436.23153873274487 461.4894841290342)"><path d="M107.4 -146.8C143 -121.9 178.5 -95.7 178.8 -65.1C179.1 -34.5 144.2 0.5 124.4 33.9C104.7 67.4 99.9 99.2 81.7 125.6C63.5 152 31.7 173 2.1 170.2C-27.6 167.4 -55.3 140.7 -85.1 118.1C-114.9 95.4 -146.8 76.8 -150.8 51.9C-154.9 27.1 -130.9 -3.8 -117.6 -36.1C-104.3 -68.5 -101.5 -102.2 -83.7 -132.9C-65.8 -163.6 -32.9 -191.3 1.5 -193.3C35.9 -195.4 71.7 -171.7 107.4 -146.8" fill="#FCAF3C"></path></g></svg>